<svg xmlns="http://www.w3.org/2000/svg" data-name="Layer 5" id="Layer_5" viewBox="0 0 24 24" width="300" height="300" version="1.1" xmlns:xlink="http://www.w3.org/1999/xlink" xmlns:svgjs="http://svgjs.dev/svgjs"><g width="100%" height="100%" transform="matrix(1,0,0,1,0,0)"><title/><path d="M22.5356,9.1216,21,7.5859V3a1,1,0,0,0-2,0V5.5859L15.8784,2.4644A4.9662,4.9662,0,0,0,12.3433,1h-.6866A4.9662,4.9662,0,0,0,8.1216,2.4644L1.4644,9.1216A4.9662,4.9662,0,0,0,0,12.6567V18a5.0059,5.0059,0,0,0,5,5H19a5.0059,5.0059,0,0,0,5-5V12.6567A4.9662,4.9662,0,0,0,22.5356,9.1216ZM22,18a3.0033,3.0033,0,0,1-3,3H5a3.0033,3.0033,0,0,1-3-3V12.6567a3.0221,3.0221,0,0,1,.8784-2.1211L9.5356,3.8784A3.0221,3.0221,0,0,1,11.6567,3h.6866a3.0221,3.0221,0,0,1,2.1211.8784l6.6572,6.6572A3.0221,3.0221,0,0,1,22,12.6567Z" fill="#d32fe8" fill-opacity="1" data-original-color="#000000ff" stroke="none" stroke-opacity="1"/><path d="M13,15H11a4.0045,4.0045,0,0,0-4,4,1,1,0,0,0,2,0,2.002,2.002,0,0,1,2-2h2a2.002,2.002,0,0,1,2,2,1,1,0,0,0,2,0A4.0045,4.0045,0,0,0,13,15Z" fill="#d32fe8" fill-opacity="1" data-original-color="#000000ff" stroke="none" stroke-opacity="1"/></g></svg>